ffmpeg started on 2025-06-27 at 12:04:15
Report written to "D:\Convert\FFMetrics\reports\psnr_report-6.txt"
Log level: 32
Command line:
ffmpeg -hide_banner -nostdin -i "G:\\\xc0\xed\xe8\xec\xe5\\[\xd2\xee\xef]\\\xcf\xee\xe2\xe5\xeb\xe8\xf2\xe5\xeb\xfc\\\xd2\xc2-2\\Special\\[Ohys-Raws] Overlord II - SP09 (BDRip-720p)_HEVC.mkv" -i "G:\\\xc0\xed\xe8\xec\xe5\\[\xd2\xee\xef]\\\xcf\xee\xe2\xe5\xeb\xe8\xf2\xe5\xeb\xfc\\\xd2\xc2-2\\Special\\[Ohys-Raws] Overlord II - SP09 (BDRip-720p).mkv" -lavfi "[0:v]settb=AVTB,setpts=PTS-STARTPTS,format=pix_fmts=yuv420p10,fps=24000/1001,scale=1280:720:flags=bicubic[main];[1:v]settb=AVTB,setpts=PTS-STARTPTS,format=pix_fmts=yuv420p,fps=24000/1001,scale=1280:720:flags=bicubic[ref];[main][ref]psnr=eof_action=endall:stats_file='D\\:/Convert/FFMetrics/logs/psnr_logfile-6.txt'" -f null -
Input #0, matroska,webm, from 'G:\Аниме\[Топ]\Повелитель\ТВ-2\Special\[Ohys-Raws] Overlord II - SP09 (BDRip-720p)_HEVC.mkv':
  Metadata:
    ENCODER         : Lavf61.7.100
  Duration: 00:01:32.10, start: -0.021000, bitrate: 503 kb/s
  Stream #0:0(jpn): Video: hevc (Main 10), yuv420p10le(tv, bt709, progressive), 1280x720 [SAR 1:1 DAR 16:9], 23.98 fps, 23.98 tbr, 1k tbn (default)
      Metadata:
        ENCODER         : Lavc61.19.100 libx265
        BPS             : 303009
        DURATION        : 00:01:32.091708333
        NUMBER_OF_FRAMES: 2208
        NUMBER_OF_BYTES : 3488061
        _STATISTICS_WRITING_APP: mkvpropedit v66.0.0 ('Josie') 64-bit
        _STATISTICS_WRITING_DATE_UTC: 2025-06-27 08:25:58
        _STATISTICS_TAGS: BPS DURATION NUMBER_OF_FRAMES NUMBER_OF_BYTES
  Stream #0:1(jpn): Audio: aac (LC), 48000 Hz, stereo, fltp (default)
      Metadata:
        ENCODER         : Lavc61.19.100 aac
        BPS             : 196087
        DURATION        : 00:01:32.075000000
        NUMBER_OF_FRAMES: 4317
        NUMBER_OF_BYTES : 2256842
        _STATISTICS_WRITING_APP: mkvpropedit v66.0.0 ('Josie') 64-bit
        _STATISTICS_WRITING_DATE_UTC: 2025-06-27 08:25:58
        _STATISTICS_TAGS: BPS DURATION NUMBER_OF_FRAMES NUMBER_OF_BYTES
Input #1, matroska,webm, from 'G:\Аниме\[Топ]\Повелитель\ТВ-2\Special\[Ohys-Raws] Overlord II - SP09 (BDRip-720p).mkv':
  Metadata:
    encoder         : libebml v1.2.3 + libmatroska v1.3.0
    creation_time   : 2018-08-21T12:08:10.000000Z
  Duration: 00:01:32.09, start: 0.000000, bitrate: 1314 kb/s
  Stream #1:0(jpn): Video: h264 (Main), yuv420p(progressive), 1280x720 [SAR 1:1 DAR 16:9], 23.98 fps, 23.98 tbr, 1k tbn (default)
  Stream #1:1(jpn): Audio: aac (LC), 48000 Hz, stereo, fltp (default)
Stream mapping:
  Stream #0:0 (hevc) -> settb:default
  Stream #1:0 (h264) -> settb:default
  psnr:default -> Stream #0:0 (wrapped_avframe)
  Stream #0:1 -> #0:1 (aac (native) -> pcm_s16le (native))
[swscaler @ 0000021f77d97500] No accelerated colorspace conversion found from yuv420p to bgr48le.
[swscaler @ 0000021f77dfeb40] No accelerated colorspace conversion found from yuv420p to bgr48le.
[swscaler @ 0000021f77e51b80] No accelerated colorspace conversion found from yuv420p to bgr48le.
[swscaler @ 0000021f77f34ac0] No accelerated colorspace conversion found from yuv420p to bgr48le.
[swscaler @ 0000021f78089b80] No accelerated colorspace conversion found from yuv420p to bgr48le.
[swscaler @ 0000021f781e47c0] No accelerated colorspace conversion found from yuv420p to bgr48le.
[swscaler @ 0000021f78366100] No accelerated colorspace conversion found from yuv420p to bgr48le.
[swscaler @ 0000021f783fbb40] No accelerated colorspace conversion found from yuv420p to bgr48le.
[swscaler @ 0000021f785147c0] No accelerated colorspace conversion found from yuv420p to bgr48le.
[swscaler @ 0000021f7868c040] No accelerated colorspace conversion found from yuv420p to bgr48le.
[swscaler @ 0000021f787a67c0] No accelerated colorspace conversion found from yuv420p to bgr48le.
[swscaler @ 0000021f78849040] No accelerated colorspace conversion found from yuv420p to bgr48le.
[swscaler @ 0000021f788a6040] No accelerated colorspace conversion found from yuv420p to bgr48le.
[swscaler @ 0000021f78937040] No accelerated colorspace conversion found from yuv420p to bgr48le.
[swscaler @ 0000021f78995040] No accelerated colorspace conversion found from yuv420p to bgr48le.
[swscaler @ 0000021f78a00040] No accelerated colorspace conversion found from yuv420p to bgr48le.
Output #0, null, to 'pipe:':
  Metadata:
    encoder         : Lavf61.7.100
  Stream #0:0: Video: wrapped_avframe, yuv420p10le(tv, bt709, progressive), 1280x720 [SAR 1:1 DAR 16:9], q=2-31, 200 kb/s, 23.98 fps, 23.98 tbn
      Metadata:
        encoder         : Lavc61.19.100 wrapped_avframe
  Stream #0:1(jpn): Audio: pcm_s16le, 48000 Hz, stereo, s16, 1536 kb/s (default)
      Metadata:
        _STATISTICS_TAGS: BPS DURATION NUMBER_OF_FRAMES NUMBER_OF_BYTES
        BPS             : 196087
        DURATION        : 00:01:32.075000000
        NUMBER_OF_FRAMES: 4317
        NUMBER_OF_BYTES : 2256842
        _STATISTICS_WRITING_APP: mkvpropedit v66.0.0 ('Josie') 64-bit
        _STATISTICS_WRITING_DATE_UTC: 2025-06-27 08:25:58
        encoder         : Lavc61.19.100 pcm_s16le
frame=   78 fps=0.0 q=-0.0 size=N/A time=00:00:03.25 bitrate=N/A speed=6.29x    frame=  167 fps=162 q=-0.0 size=N/A time=00:00:06.96 bitrate=N/A speed=6.77x    frame=  257 fps=165 q=-0.0 size=N/A time=00:00:10.71 bitrate=N/A speed= 6.9x    frame=  348 fps=167 q=-0.0 size=N/A time=00:00:14.51 bitrate=N/A speed=6.97x    frame=  436 fps=168 q=-0.0 size=N/A time=00:00:18.18 bitrate=N/A speed=7.02x    frame=  517 fps=167 q=-0.0 size=N/A time=00:00:21.56 bitrate=N/A speed=6.95x    frame=  614 fps=169 q=-0.0 size=N/A time=00:00:25.60 bitrate=N/A speed=7.05x    frame=  696 fps=168 q=-0.0 size=N/A time=00:00:29.02 bitrate=N/A speed=7.02x    frame=  781 fps=168 q=-0.0 size=N/A time=00:00:32.57 bitrate=N/A speed=7.01x    frame=  871 fps=168 q=-0.0 size=N/A time=00:00:36.32 bitrate=N/A speed=7.02x    frame=  962 fps=169 q=-0.0 size=N/A time=00:00:40.12 bitrate=N/A speed=7.05x    frame= 1053 fps=170 q=-0.0 size=N/A time=00:00:43.91 bitrate=N/A speed=7.07x    frame= 1141 fps=170 q=-0.0 size=N/A time=00:00:47.58 bitrate=N/A speed=7.09x    frame= 1233 fps=170 q=-0.0 size=N/A time=00:00:51.42 bitrate=N/A speed= 7.1x    frame= 1312 fps=169 q=-0.0 size=N/A time=00:00:54.72 bitrate=N/A speed=7.06x    frame= 1403 fps=170 q=-0.0 size=N/A time=00:00:58.51 bitrate=N/A speed=7.09x    frame= 1491 fps=170 q=-0.0 size=N/A time=00:01:02.18 bitrate=N/A speed=7.08x    frame= 1580 fps=170 q=-0.0 size=N/A time=00:01:05.89 bitrate=N/A speed=7.08x    frame= 1667 fps=170 q=-0.0 size=N/A time=00:01:09.52 bitrate=N/A speed=7.09x    frame= 1757 fps=170 q=-0.0 size=N/A time=00:01:13.28 bitrate=N/A speed=7.09x    frame= 1844 fps=170 q=-0.0 size=N/A time=00:01:16.91 bitrate=N/A speed=7.09x    frame= 1931 fps=170 q=-0.0 size=N/A time=00:01:20.53 bitrate=N/A speed= 7.1x    frame= 2021 fps=170 q=-0.0 size=N/A time=00:01:24.29 bitrate=N/A speed= 7.1x    frame= 2110 fps=170 q=-0.0 size=N/A time=00:01:28.00 bitrate=N/A speed= 7.1x    frame= 2200 fps=171 q=-0.0 size=N/A time=00:01:31.75 bitrate=N/A speed=7.11x    [Parsed_psnr_10 @ 0000021f775a7c00] PSNR y:44.833691 u:48.692241 v:48.722996 average:45.785029 min:40.884452 max:56.074727
[out#0/null @ 0000021f6b932a80] video:949KiB audio:17268KiB subtitle:0KiB other streams:0KiB global headers:0KiB muxing overhead: unknown
frame= 2208 fps=170 q=-0.0 Lsize=N/A time=00:01:32.09 bitrate=N/A speed=7.11x    
